<svg version="1.1" id="Layer_1" xmlns="http://www.w3.org/2000/svg" xmlns:xlink="http://www.w3.org/1999/xlink" x="0px" y="0px"
	 viewBox="0 0 241.5 59.4" enable-background="new 0 0 241.5 59.4" xml:space="preserve">
<path fill="#F05223" d="M15.8,56.9C5,44.2,0.1,19.3,0,19c-0.1-0.6,0.2-1.3,1.3-1.3h7c0.7,0,1.2,0.4,1.3,1.1
	c2.8,13,8.2,25.5,10.7,29.1c2.6-3.5,7.9-16,10.7-29.1c0.2-0.7,0.6-1.1,1.3-1.1h7c1.1,0,1.4,0.7,1.3,1.3c-0.1,0.3-5,25.1-15.8,37.8
	c-1.2,1.4-2.6,2.1-4.5,2.1C18.4,59,17,58.3,15.8,56.9 M51,0c-3.1,0-5.6,2.5-5.6,5.6c0,3.1,2.5,5.6,5.6,5.6c3.1,0,5.6-2.5,5.6-5.6
	C56.6,2.5,54.1,0,51,0 M104.2,0c-3.1,0-5.6,2.5-5.6,5.6c0,3.1,2.5,5.6,5.6,5.6c3.1,0,5.6-2.5,5.6-5.6C109.9,2.5,107.3,0,104.2,0
	 M54.2,17.7h-6.4c-1,0-1.5,0.5-1.5,1.4v38.1c0,0.9,0.5,1.4,1.5,1.4h6.4c1,0,1.5-0.5,1.5-1.4V19.1C55.6,18.1,55.1,17.7,54.2,17.7
	 M107.4,17.7H101c-1,0-1.5,0.5-1.5,1.4v38.1c0,0.9,0.5,1.4,1.5,1.4h6.4c1,0,1.5-0.5,1.5-1.4V19.1C108.9,18.1,108.4,17.7,107.4,17.7
	 M157.1,57.2c0,0.9,0.5,1.4,1.5,1.4h6.4c1,0,1.5-0.5,1.5-1.4V26.3c1.9-1.3,7.9-3.3,12.2-0.8c2.6,1.5,3.6,5.8,3.6,10.7l0,20.9
	c0,0.9,0.5,1.4,1.5,1.4h6.4c1,0,1.5-0.5,1.5-1.4V35.6c0-12.8-5.8-19.2-17.5-19.3c-5.7,0-11.9,2.1-15.2,5c-1.1,1-1.7,2.2-1.7,3.6
	L157.1,57.2z M221.2,25.3c0.9,0,1.4-0.5,1.4-1.5v-4.7c0-1-0.5-1.5-1.4-1.5h-10V8.1c0-0.9-0.5-1.4-1.5-1.4h-6.4c-1,0-1.5,0.5-1.5,1.4
	v9.6h-5.3c-0.9,0-1.4,0.5-1.4,1.5v4.7c0,1,0.5,1.5,1.4,1.5h5.3v19.6c0,5.8,2.2,9.1,3.3,10.3c1.1,1.3,3.9,4,9.5,4
	c5,0,9.1-2.8,10.9-4.6c0.7-0.7,0.6-1.1,0.2-1.6c-0.1-0.1-3.2-4.2-3.2-4.2c-0.5-0.6-1.2-0.6-1.7-0.2c-1.1,0.9-3.5,3-6.7,1.8
	c-2.3-0.9-2.8-3.5-2.8-5.5V25.3H221.2z M141.9,41.2h-17c0,5.4,3.7,10.2,9.8,10.2c3.7,0,7-1.3,10-3.8c1-1,1.7,0.1,1.7,0.2
	c0,0,2.9,4.1,3.3,4.6c0.1,0.2,0.2,0.6-0.4,1.3c-3.9,3.9-8.8,5.8-14.8,5.8c-12.4,0-18.7-10.1-18.7-21.6c0-13.8,8.8-21.5,18.9-21.5
	c8.7,0,16.2,6.6,16.2,15.8C150.8,38.1,147.8,41.2,141.9,41.2 M142.2,31.8c0-3.2-2-7.9-8-7.9c-2.2,0-8.1,0.9-9,9.8h15.2
	C141.6,33.7,142.2,33.1,142.2,31.8 M92.1,58.6c0.9,0,1.4-0.5,1.4-1.5V52c0-1-0.5-1.5-1.4-1.5l-19.3,0c1.9-4.7,13.7-16.2,17.8-22.7
	c1.5-2.4,2.3-4.3,2.3-5.5c0-1.4-0.7-4.6-5.5-4.6H64.8c-0.9,0-1.4,0.5-1.4,1.5v5.1c0,1,0.5,1.5,1.4,1.5h17.3
	c-0.9,1.7-12.3,13.9-16.6,21.2c-1.1,1.9-2.7,5-2.7,7.3c0,2.9,1.7,4.4,5.2,4.4H92.1z M235.2,52.3l-0.1,0.7h-1.9v5.5h-0.9v-5.5h-2
	l0.1-0.7H235.2z M237,52.3l1.9,3.8l1.8-3.8h0.9v6.3h-0.8v-4.8l-1.5,3.2h-0.7l-1.5-3.2v4.7h-0.8v-6.3H237z"/>
</svg>