<?xml version="1.0" encoding="UTF-8"?>
<svg width="507px" height="502px" viewBox="0 0 507 502" version="1.1" xmlns="http://www.w3.org/2000/svg" xmlns:xlink="http://www.w3.org/1999/xlink">
    <!-- Generator: Sketch 48.2 (47327) - http://www.bohemiancoding.com/sketch -->
    <title>Orange + Green</title>
    <desc>Created with Sketch.</desc>
    <defs></defs>
    <g id="ToolKit-LandingPage" stroke="none" stroke-width="1" fill="none" fill-rule="evenodd" transform="translate(-732.000000, -154.000000)">
        <g id="Orange-+-Green" transform="translate(732.000000, 157.000000)">
            <g id="Group-4" opacity="0.200000003" stroke-dasharray="0,18.75" stroke-linecap="round" stroke-linejoin="round" stroke-width="6">
                <path d="M3,112.526566 L3,233.74118" id="Line" stroke="#00CC99"></path>
                <path d="M38,112.526566 L38,233.74118" id="Line-Copy" stroke="#00CC99"></path>
                <path d="M20,112.526566 L20,233.74118" id="Line-Copy-2" stroke="#FF4E00"></path>
                <path d="M56,112.526566 L56,233.74118" id="Line-Copy-3" stroke="#FF4E00"></path>
                <path d="M73,112.526566 L73,233.74118" id="Line-Copy-5" stroke="#00CC99"></path>
                <path d="M91.0834368,113.064621 L91.0834368,233.609971" id="Line-Copy-4" stroke="#FF4E00"></path>
                <path d="M109.083437,113.307943 L109.083437,233.570355" id="Line-Copy-7" stroke="#00CC99"></path>
                <path d="M125.905967,0.680572795 L125.905967,236" id="Line-Copy-6" stroke="#FF4E00"></path>
                <path d="M143.60086,0.680572795 L143.60086,290.633339" id="Line-Copy-9" stroke="#00CC99"></path>
                <path d="M161.295752,0.680572795 L161.295752,290.633339" id="Line-Copy-8" stroke="#FF4E00"></path>
                <path d="M178.990645,0.680572795 L178.990645,290.633339" id="Line-Copy-11" stroke="#00CC99"></path>
                <path d="M196.685538,0.680572795 L196.685538,290.633339" id="Line-Copy-10" stroke="#FF4E00"></path>
                <path d="M214.38043,0.680572795 L214.38043,290.633339" id="Line-Copy-13" stroke="#00CC99"></path>
            </g>
            <g id="Group-12" opacity="0.200000003" transform="translate(301.000000, 213.000000)" stroke-dasharray="0,18.75" stroke-linecap="round" stroke-linejoin="round" stroke-width="6">
                <path d="M2.04171838,0.680572795 L2.04171838,290.633339" id="Line-Copy-14" stroke="#FF4E00"></path>
                <path d="M38.0417184,0.680572795 L38.0417184,290.633339" id="Line-Copy-18" stroke="#FF4E00"></path>
                <path d="M20.0417184,0.680572795 L20.0417184,290.633339" id="Line-Copy-17" stroke="#00CC99"></path>
                <path d="M56.0417184,0.680572795 L56.0417184,290.633339" id="Line-Copy-19" stroke="#00CC99"></path>
                <path d="M74.0417184,0.680572795 L74.0417184,290.633339" id="Line-Copy-21" stroke="#FF4E00"></path>
                <path d="M92.0417184,93.9972406 L92.0417184,290.633339" id="Line-Copy-20" stroke="#00CC99"></path>
                <path d="M111,94.2336449 L111,193.776227" id="Line-Copy-23" stroke="#FF4E00"></path>
                <path d="M129,94.2336449 L129,193.776227" id="Line-Copy-22" stroke="#00CC99"></path>
                <path d="M147,94.2336449 L147,193.776227" id="Line-Copy-25" stroke="#FF4E00"></path>
                <path d="M165,94.2336449 L165,193.776227" id="Line-Copy-24" stroke="#00CC99"></path>
                <path d="M183,94.2336449 L183,193.776227" id="Line-Copy-27" stroke="#FF4E00"></path>
                <path d="M201,94.2336449 L201,193.776227" id="Line-Copy-26" stroke="#00CC99"></path>
            </g>
            <g id="Group-13" transform="translate(138.000000, 91.000000)">
                <path d="M253.4998,75.492 L8.9998,75.492 C4.0288,75.492 -0.0002,79.521 -0.0002,84.492 L-0.0002,253.992 C-0.0002,258.963 4.0288,262.992 8.9998,262.992 L253.4998,262.992 C258.4708,262.992 262.4998,258.963 262.4998,253.992 L262.4998,84.492 C262.4998,79.521 258.4708,75.492 253.4998,75.492" id="Fill-13" fill="#FFFFFF"></path>
                <path d="M253.5,75 L9,75 C4.029,75 0,79.029 0,84 L0,253.5 C0,258.471 4.029,262.5 9,262.5 L253.5,262.5 C258.471,262.5 262.5,258.471 262.5,253.5 L262.5,84 C262.5,79.029 258.471,75 253.5,75 Z" id="Stroke-15" stroke="#FF4E00" stroke-width="6" stroke-linecap="round" stroke-linejoin="round"></path>
                <polygon id="Fill-17" fill="#FFFFFF" points="74.158 300.921 186.658 300.921 186.658 262.992 74.158 262.992"></polygon>
                <polygon id="Stroke-19" stroke="#FF4E00" stroke-width="6" stroke-linecap="round" stroke-linejoin="round" points="74 300.929 186.5 300.929 186.5 263 74 263"></polygon>
                <g id="Group-22" transform="translate(36.000000, 300.921000)">
                    <path d="M0.6589,0 L188.1589,0" id="Fill-20" fill="#FFFFFF"></path>
                    <path d="M0.6589,0 L188.1589,0" id="Stroke-21" stroke="#FF4E00" stroke-width="6" stroke-linecap="round" stroke-linejoin="round"></path>
                </g>
                <polygon id="Fill-23" fill="#FFFFFF" points="18.331 207.171 242.068 207.171 242.068 94.671 18.331 94.671"></polygon>
                <polygon id="Stroke-24" stroke="#FF4E00" stroke-width="6" stroke-linecap="round" stroke-linejoin="round" points="18.331 207.171 242.068 207.171 242.068 94.671 18.331 94.671"></polygon>
                <g id="Group-27" transform="translate(113.000000, 231.921000)">
                    <path d="M0.3407,3.1605 L37.8407,3.1605" id="Fill-25" fill="#FFFFFF"></path>
                    <circle id="Oval-3" fill="#00CC99" cx="17" cy="3" r="3"></circle>
                </g>
                <polygon id="Fill-54" fill="#FFFFFF" points="167.6986 18.813 146.9476 18.813 130.1986 0.063 148.9486 0.063"></polygon>
                <polygon id="Stroke-55" stroke="#FF4E00" stroke-width="6" stroke-linecap="round" stroke-linejoin="round" points="167.6986 18.813 146.9476 18.813 130.1986 0.063 148.9486 0.063"></polygon>
                <path d="M223.9486,37.563 L36.4486,37.563" id="Stroke-56" stroke="#1F3A93" stroke-width="6" stroke-linecap="round" stroke-linejoin="round"></path>
                <polygon id="Fill-57" fill="#FFFFFF" points="148.9486 18.813 130.1986 0.063 55.1986 0.063 36.4486 18.813 36.4486 37.563 223.9486 37.563 223.9486 18.813"></polygon>
                <polygon id="Stroke-58" stroke="#FF4E00" stroke-width="6" stroke-linecap="round" stroke-linejoin="round" points="148.9486 18.813 130.1986 0.063 55.1986 0.063 36.4486 18.813 36.4486 37.563 223.9486 37.563 223.9486 18.813"></polygon>
                <polygon id="Fill-59" fill="#FFFFFF" points="36.658 207.171 224.158 207.171 224.158 37.563 36.658 37.563"></polygon>
                <polygon id="Stroke-60" stroke="#FF4E00" stroke-width="6" stroke-linecap="round" stroke-linejoin="round" points="36.658 207.171 224.158 207.171 224.158 37.563 36.658 37.563"></polygon>
                <path d="M55.1986,93.813 L148.9486,93.813" id="Stroke-61" stroke="#FF4E00" stroke-width="6" stroke-linecap="round" stroke-linejoin="round" stroke-dasharray="18,23,90,12"></path>
                <circle id="Oval-2" fill="#FF4E00" cx="85" cy="94" r="3"></circle>
                <path d="M55.1986,112.563 L148.9486,112.563" id="Stroke-62" stroke="#00CC99" stroke-width="6" stroke-linecap="round" stroke-linejoin="round"></path>
                <path d="M148.9486,131.313 L55.1986,131.313" id="Stroke-63" stroke="#FF4E00" stroke-width="6" stroke-linecap="round" stroke-linejoin="round" stroke-dasharray="18,12,90,12"></path>
                <path d="M55.1986,150.063 L148.9486,150.063" id="Stroke-64" stroke="#00CC99" stroke-width="6" stroke-linecap="round" stroke-linejoin="round" stroke-dasharray="29,20,90,12"></path>
                <circle id="Oval-2" fill="#00CC99" cx="94" cy="150" r="3"></circle>
                <path d="M55.4089,75.063 L130.4089,75.063" id="Stroke-65" stroke="#00CC99" stroke-width="6" stroke-linecap="round" stroke-linejoin="round"></path>
            </g>
            <g id="compass" transform="translate(9.000000, 0.000000)" stroke-linecap="round" stroke-linejoin="round" stroke-width="6">
                <path d="M70.482,60 L81,60" id="Shape" stroke="#00CC99"></path>
                <path d="M27,60 L57,60" id="Shape" stroke="#00CC99"></path>
                <path d="M3,60 L13.518,60" id="Shape" stroke="#00CC99"></path>
                <path d="M42,54 L42,66" id="Shape" stroke="#00CC99"></path>
                <path d="M40.545,32.91 L17.532,78.936 C14.301,85.401 7.011,88.752 0,87 L30.84,25.407" id="Shape" stroke="#FF4E00"></path>
                <path d="M43.455,32.91 L66.468,78.939 C69.699,85.401 76.989,88.752 84,87 L53.16,25.407" id="Shape" stroke="#FF4E00"></path>
                <circle id="Oval" stroke="#00CC99" cx="42" cy="21" r="12"></circle>
                <path d="M42,0 L42,9" id="Shape" stroke="#00CC99"></path>
            </g>
            <g id="Group-5" transform="translate(43.000000, 395.000000)" stroke-linecap="round" stroke-linejoin="round" stroke-width="6">
                <path d="M28.6503,9.7243 L0.5253,9.7243" id="Stroke-5" stroke="#00CC99"></path>
                <path d="M28.6503,9.7243 C28.6503,4.5463 32.8473,0.3493 38.0253,0.3493 C43.2033,0.3493 47.4003,4.5463 47.4003,9.7243 C47.4003,14.9023 43.2033,19.0993 38.0253,19.0993 C32.8473,19.0993 28.6503,14.9023 28.6503,9.7243 Z" id="Stroke-50" stroke="#FF4E00"></path>
            </g>
            <g id="Group-6" transform="translate(401.000000, 45.000000)" stroke-linecap="round" stroke-linejoin="round" stroke-width="6">
                <path d="M42.5532,0.7243 C35.5212,0.7243 35.5212,36.7243 28.4892,36.7243 C21.4512,36.7243 21.4512,0.7243 14.4132,0.7243 C7.3752,0.7243 7.3752,36.7243 0.3372,36.7243" id="Stroke-1" stroke="#00CC99"></path>
                <path d="M84.7128,36.7243 C77.6838,36.7243 77.6838,0.7243 70.6578,0.7243 C63.6318,0.7243 63.6318,36.7243 56.6058,36.7243 C49.5798,36.7243 49.5798,0.7243 42.5538,0.7243" id="Stroke-52" stroke="#FF4E00"></path>
            </g>
            <g id="code" transform="translate(420.000000, 428.000000)" stroke-linecap="round" stroke-linejoin="round" stroke-width="6">
                <polyline id="Shape" stroke="#FF4E00" points="18 15 0 33 18 51"></polyline>
                <polyline id="Shape" stroke="#FF4E00" points="66 15 84 33 66 51"></polyline>
                <path d="M30,66 L54,0" id="Shape" stroke="#00CC99"></path>
            </g>
        </g>
    </g>
</svg>