<?xml version="1.0" encoding="UTF-8"?>
<svg width="107px" height="28px" viewBox="0 0 107 28" version="1.1" xmlns="http://www.w3.org/2000/svg" xmlns:xlink="http://www.w3.org/1999/xlink">
    <!-- Generator: Sketch 48.2 (47327) - http://www.bohemiancoding.com/sketch -->
    <title>Fill 1</title>
    <desc>Created with Sketch.</desc>
    <defs></defs>
    <g id="ToolKit-LandingPage" stroke="none" stroke-width="1" fill="none" fill-rule="evenodd" transform="translate(-135.000000, -22.000000)">
        <g id="1" fill="#FF4E02">
            <g id="Group-7" transform="translate(135.000000, 22.000000)">
                <g id="Page-1">
                    <path d="M43.4521216,27.5106779 C43.8900592,27.5106779 44.1085839,27.2798989 44.1085839,26.8189305 L44.1085839,24.3991411 C44.1085839,23.9381726 43.8900592,23.7076884 43.4521216,23.7076884 L34.3430774,23.7068042 C35.2195449,21.4956884 40.828641,16.1120253 42.758054,13.0444042 C43.4749216,11.9049516 43.8388332,11.0248674 43.8388332,10.45072 C43.8388332,9.78490947 43.5178566,8.29914105 41.2526618,8.29914105 L30.5579813,8.29914105 C30.1209319,8.29914105 29.9018151,8.52992 29.9018151,8.99088842 L29.9018151,11.3732463 C29.9018151,11.83392 30.1209319,12.0646989 30.5579813,12.0646989 L38.7049839,12.0644042 C38.2957683,12.8507621 32.8909839,18.5937095 30.8884332,22.0158989 C30.3619605,22.9154358 29.633841,24.3437305 29.633841,25.4357305 C29.633841,26.8189305 30.4570099,27.5106779 32.1042358,27.5106779 L43.4521216,27.5106779 Z M67.0761787,14.9463411 C67.0761787,13.4452463 66.1357527,11.2173305 63.3248384,11.2173305 C62.2701164,11.2173305 59.5148696,11.6255411 59.0861112,15.8299621 L66.2657423,15.8299621 C66.8058358,15.8299621 67.0761787,15.5361095 67.0761787,14.9463411 Z M66.9219086,19.3264253 L58.8927553,19.3264253 C58.8927553,21.8726568 60.6593112,24.1294568 63.5247086,24.1294568 C65.2743865,24.1294568 66.8449216,23.5276042 68.234241,22.3230147 C68.6991242,21.8602779 69.0343138,22.3857937 69.0452696,22.4002358 C69.0452696,22.4002358 70.4014255,24.3110147 70.5888592,24.5709726 C70.6377164,24.6552674 70.7052281,24.8592253 70.3960956,25.1666358 C68.5682462,26.9860463 66.2396852,27.89472 63.4089319,27.89472 C57.5691709,27.89472 54.5699345,23.1473937 54.5699345,17.7513516 C54.5699345,11.2697937 58.7423345,7.64600421 63.4865112,7.64600421 C67.5703761,7.64600421 71.1295449,10.7498779 71.1295449,15.0615832 C71.1295449,17.9046147 69.7260125,19.3264253 66.9219086,19.3264253 Z M104.317462,11.8725305 C104.755399,11.8725305 104.973924,11.6417516 104.973924,11.1807832 L104.973924,8.98528842 C104.973924,8.52432 104.755399,8.29914105 104.317462,8.29914105 L99.6082255,8.29914105 L99.6082255,3.80912 C99.6082255,3.37408842 99.3766722,3.15598316 98.9138618,3.15598316 L95.9027813,3.15598316 C95.4393787,3.15598316 95.2078255,3.37408842 95.2078255,3.80912 L95.2078255,8.29914105 L92.6989371,8.29914105 C92.2618878,8.29914105 92.0427709,8.52432 92.0427709,8.98528842 L92.0427709,11.1807832 C92.0427709,11.6417516 92.2618878,11.8725305 92.6989371,11.8725305 L95.2078255,11.8722358 L95.2078255,21.0939621 C95.2078255,23.8382568 96.2367865,25.3458358 96.7517112,25.9350147 C97.2660436,26.5244884 98.5757112,27.8245726 101.229394,27.8177937 C103.595264,27.8116042 105.543036,26.5112253 106.36354,25.66592 C106.687181,25.3322779 106.632106,25.1415832 106.455036,24.9119832 C106.404994,24.8471411 104.935431,22.9381305 104.935431,22.9381305 C104.719571,22.6404463 104.347072,22.6578358 104.124698,22.8612042 C103.596449,23.2941726 102.471254,24.2550147 100.949872,23.6920674 C99.8436281,23.2826779 99.6082255,22.0542147 99.6082255,21.1322779 L99.6082255,11.8725305 L104.317462,11.8725305 Z M74.1015397,26.8572463 C74.1015397,27.2931621 74.333093,27.5106779 74.7961995,27.5106779 L77.80728,27.5106779 C78.2706826,27.5106779 78.5022358,27.2931621 78.5022358,26.8572463 L78.5022358,12.3721095 C79.4012073,11.7643621 82.2118255,10.8212042 84.2546462,12.0166568 C85.493841,12.7422989 85.961093,14.7193937 85.9519138,17.0209937 L85.9516177,26.8572463 C85.9516177,27.2931621 86.1831709,27.5106779 86.6462774,27.5106779 L89.657654,27.5106779 C90.1204644,27.5106779 90.3526099,27.2931621 90.3526099,26.8572463 L90.3526099,16.7135832 C90.3526099,10.7198147 87.5985475,7.69139368 82.0919034,7.64600421 C79.4245995,7.62389895 76.4700748,8.64221474 74.9122722,9.98975158 C74.3751397,10.4545516 74.1018358,11.0145516 74.1018358,11.6803621 L74.1015397,26.8572463 Z M50.6711345,8.29914105 L47.660054,8.29914105 C47.1969475,8.29914105 46.9653943,8.51724632 46.9653943,8.95257263 L46.9653943,26.8572463 C46.9653943,27.2931621 47.1969475,27.5106779 47.660054,27.5106779 L50.6711345,27.5106779 C51.134241,27.5106779 51.3660904,27.2931621 51.3660904,26.8572463 L51.3660904,8.95257263 C51.3660904,8.51724632 51.134241,8.29914105 50.6711345,8.29914105 Z M25.5422774,8.29914105 L22.5311969,8.29914105 C22.0680904,8.29914105 21.836241,8.51724632 21.836241,8.95257263 L21.836241,26.8572463 C21.836241,27.2931621 22.0680904,27.5106779 22.5311969,27.5106779 L25.5422774,27.5106779 C26.0053839,27.5106779 26.2369371,27.2931621 26.2369371,26.8572463 L26.2369371,8.95257263 C26.2369371,8.51724632 26.0053839,8.29914105 25.5422774,8.29914105 Z M49.1657423,-5.89473684e-05 C47.6946982,-5.89473684e-05 46.5022878,1.18684632 46.5022878,2.65139368 C46.5022878,4.11535158 47.6946982,5.30225684 49.1657423,5.30225684 C50.6364904,5.30225684 51.8289008,4.11535158 51.8289008,2.65139368 C51.8289008,1.18684632 50.6364904,-5.89473684e-05 49.1657423,-5.89473684e-05 Z M24.0365891,-5.89473684e-05 C22.5655449,-5.89473684e-05 21.3731345,1.18684632 21.3731345,2.65139368 C21.3731345,4.11535158 22.5655449,5.30225684 24.0365891,5.30225684 C25.5076332,5.30225684 26.7000436,4.11535158 26.7000436,2.65139368 C26.7000436,1.18684632 25.5076332,-5.89473684e-05 24.0365891,-5.89473684e-05 Z M7.44529558,26.7036884 C2.35763844,20.73232 0.0352955844,9.07135158 0.0104228571,8.93253053 C-0.0402109091,8.64958316 0.0853371429,8.29914105 0.612994286,8.29914105 L3.89412156,8.29914105 C4.22812675,8.29914105 4.43984104,8.46478316 4.51149818,8.79872 C5.83004883,14.9233516 8.36084883,20.7880253 9.56836052,22.4388463 C10.7758722,20.7880253 13.3063761,14.9233516 14.6252229,8.79872 C14.69688,8.46478316 14.9085943,8.29914105 15.2425995,8.29914105 L18.5237268,8.29914105 C19.0513839,8.29914105 19.1769319,8.64958316 19.1262982,8.93253053 C19.1017216,9.07135158 16.7790826,20.73232 11.6914255,26.7036884 C11.1243865,27.3692042 10.4471969,27.7025516 9.56806442,27.7025516 C8.68952416,27.7025516 8.01233455,27.3692042 7.44529558,26.7036884 Z" id="Fill-1"></path>
                </g>
            </g>
        </g>
    </g>
</svg>