<?xml version="1.0" standalone="no"?>
<!DOCTYPE svg PUBLIC "-//W3C//DTD SVG 20010904//EN"
 "http://www.w3.org/TR/2001/REC-SVG-20010904/DTD/svg10.dtd">
<svg version="1.0" xmlns="http://www.w3.org/2000/svg"
 width="350.000000pt" height="350.000000pt" viewBox="0 0 350.000000 350.000000"
 preserveAspectRatio="xMidYMid meet">
<metadata>
Created by potrace 1.11, written by Peter Selinger 2001-2013
</metadata>
<g transform="translate(0.000000,350.000000) scale(0.100000,-0.100000)"
fill="#000000" stroke="none">
<path d="M0 1750 l0 -1750 1750 0 1750 0 0 1750 0 1750 -1750 0 -1750 0 0
-1750z m1069 1223 c17 -14 34 -67 76 -238 112 -454 262 -896 435 -1275 55
-122 169 -330 180 -330 11 0 125 208 180 330 173 379 323 821 435 1275 42 171
59 224 76 238 19 15 48 17 270 17 240 0 250 -1 270 -21 28 -28 24 -59 -47
-343 -203 -811 -482 -1483 -802 -1930 -87 -122 -166 -201 -230 -233 -50 -25
-68 -28 -152 -28 -84 0 -102 3 -152 28 -129 64 -325 334 -516 717 -206 411
-375 884 -516 1446 -71 284 -75 315 -47 343 20 20 30 21 270 21 222 0 251 -2
270 -17z"/>
</g>
</svg>
