<?xml version="1.0" encoding="UTF-8"?>
<svg width="24px" height="24px" viewBox="0 0 24 24" version="1.1" xmlns="http://www.w3.org/2000/svg" xmlns:xlink="http://www.w3.org/1999/xlink">
    <!-- Generator: Sketch 48.2 (47327) - http://www.bohemiancoding.com/sketch -->
    <title>image-01</title>
    <desc>Created with Sketch.</desc>
    <defs></defs>
    <g id="ToolKit-Components" stroke="none" stroke-width="1" fill="none" fill-rule="evenodd" transform="translate(-136.000000, -570.000000)">
        <g id="1" transform="translate(135.000000, 227.000000)" fill="#BFBFBF" fill-rule="nonzero">
            <g id="1-copy-3" transform="translate(1.000000, 331.000000)">
                <g id="image-01" transform="translate(0.000000, 12.000000)">
                    <path d="M23,0 L1,0 C0.448,0 0,0.448 0,1 L0,23 C0,23.552 0.448,24 1,24 L23,24 C23.552,24 24,23.552 24,23 L24,1 C24,0.448 23.552,0 23,0 Z M22,22 L2,22 L2,2 L22,2 L22,22 Z" id="Shape"></path>
                    <path d="M5,20 L19,20 C19.364,20 19.698,19.803 19.875,19.485 C20.052,19.167 20.041,18.778 19.849,18.47 L14.849,10.47 C14.693,10.22 14.434,10.052 14.143,10.01 C13.852,9.967 13.557,10.057 13.336,10.252 L4.336,18.252 C4.026,18.528 3.919,18.967 4.066,19.355 C4.213,19.743 4.585,20 5,20 Z" id="Shape"></path>
                    <circle id="Oval" cx="7" cy="7" r="2"></circle>
                </g>
            </g>
        </g>
    </g>
</svg>