<?xml version="1.0" encoding="UTF-8"?>
<svg width="24px" height="24px" viewBox="0 0 24 24" version="1.1" xmlns="http://www.w3.org/2000/svg" xmlns:xlink="http://www.w3.org/1999/xlink">
    <!-- Generator: Sketch 48.2 (47327) - http://www.bohemiancoding.com/sketch -->
    <title>world</title>
    <desc>Created with Sketch.</desc>
    <defs></defs>
    <g id="ToolKit-Components" stroke="none" stroke-width="1" fill="none" fill-rule="evenodd" transform="translate(-136.000000, -657.000000)">
        <g id="1" transform="translate(135.000000, 227.000000)" fill="#BFBFBF" fill-rule="nonzero">
            <g id="1-copy-4" transform="translate(1.000000, 418.000000)">
                <g id="world" transform="translate(0.000000, 12.000000)">
                    <path d="M12,0 C5.383,0 0,5.383 0,12 C0,18.617 5.383,24 12,24 C18.617,24 24,18.617 24,12 C24,5.383 18.617,0 12,0 Z M12,22 C9.5,22 7.217,21.071 5.462,19.549 C5.47,19.536 5.481,19.525 5.488,19.512 C7.14,16.744 6.101,15.053 5.334,14.291 C5.132,14.09 4.901,13.907 4.663,13.723 C4.041,13.24 3.629,12.921 3.629,12 C3.629,11.566 3.871,11.396 5.066,10.988 C5.888,10.707 6.819,10.389 7.42,9.612 C8.815,7.808 7.281,5.026 6.959,4.486 C6.794,4.209 6.615,3.949 6.429,3.7 C7.932,2.688 9.726,2.084 11.654,2.017 C11.966,2.546 12.481,2.992 12.987,3.427 C13.419,3.799 14.105,3.955 14.458,4.395 C14.66,4.647 14.562,5.133 14.569,5.451 C14.583,6.082 14.965,6.997 16.253,6.997 C16.31,6.997 16.369,6.995 16.43,6.991 C16.928,6.956 18.482,6.6 20.044,6.084 C21.268,7.744 22,9.786 22,12 C22,17.514 17.514,22 12,22 Z" id="Shape"></path>
                    <path d="M15.514,8.903 C13.938,8.903 12.329,9.652 11.511,10.766 C10.962,11.514 10.802,12.379 11.06,13.202 C11.575,14.844 11.625,15.812 11.303,16.897 C11.017,17.861 10.989,19.259 12.622,19.925 C12.93,20.051 13.268,20.115 13.624,20.115 C14.838,20.115 16.275,19.364 17.568,18.053 C19.122,16.478 20.036,14.548 20.014,12.888 C19.984,10.654 18.007,8.903 15.514,8.903 Z" id="Shape"></path>
                </g>
            </g>
        </g>
    </g>
</svg>