<?xml version="1.0" encoding="UTF-8"?>
<svg width="24px" height="22px" viewBox="0 0 24 22" version="1.1" xmlns="http://www.w3.org/2000/svg" xmlns:xlink="http://www.w3.org/1999/xlink">
    <!-- Generator: Sketch 48.2 (47327) - http://www.bohemiancoding.com/sketch -->
    <title>bullet-list</title>
    <desc>Created with Sketch.</desc>
    <defs></defs>
    <g id="ToolKit-Components" stroke="none" stroke-width="1" fill="none" fill-rule="evenodd" transform="translate(-1007.000000, -310.000000)">
        <g id="3" transform="translate(1004.000000, 227.000000)" fill="#BFBFBF" fill-rule="nonzero">
            <g id="1" transform="translate(3.000000, 70.000000)">
                <g id="bullet-list" transform="translate(0.000000, 13.000000)">
                    <path d="M3,6 C1.346,6 0,4.654 0,3 C0,1.346 1.346,0 3,0 C4.654,0 6,1.346 6,3 C6,4.654 4.654,6 3,6 Z" id="Shape"></path>
                    <path d="M3,18 C1.346,18 0,16.654 0,15 C0,13.346 1.346,12 3,12 C4.654,12 6,13.346 6,15 C6,16.654 4.654,18 3,18 Z" id="Shape"></path>
                    <path d="M23,4 L9,4 C8.448,4 8,3.552 8,3 C8,2.448 8.448,2 9,2 L23,2 C23.552,2 24,2.448 24,3 C24,3.552 23.552,4 23,4 Z" id="Shape"></path>
                    <path d="M23,10 L9,10 C8.448,10 8,9.552 8,9 C8,8.448 8.448,8 9,8 L23,8 C23.552,8 24,8.448 24,9 C24,9.552 23.552,10 23,10 Z" id="Shape"></path>
                    <path d="M23,16 L9,16 C8.448,16 8,15.552 8,15 C8,14.448 8.448,14 9,14 L23,14 C23.552,14 24,14.448 24,15 C24,15.552 23.552,16 23,16 Z" id="Shape"></path>
                    <path d="M23,22 L9,22 C8.448,22 8,21.552 8,21 C8,20.448 8.448,20 9,20 L23,20 C23.552,20 24,20.448 24,21 C24,21.552 23.552,22 23,22 Z" id="Shape"></path>
                </g>
            </g>
        </g>
    </g>
</svg>