<?xml version="1.0" encoding="UTF-8"?>
<svg width="24px" height="16px" viewBox="0 0 24 16" version="1.1" xmlns="http://www.w3.org/2000/svg" xmlns:xlink="http://www.w3.org/1999/xlink">
    <!-- Generator: Sketch 48.2 (47327) - http://www.bohemiancoding.com/sketch -->
    <title>animation-14</title>
    <desc>Created with Sketch.</desc>
    <defs></defs>
    <g id="ToolKit-Components" stroke="none" stroke-width="1" fill="none" fill-rule="evenodd" transform="translate(-136.000000, -748.000000)">
        <g id="1" transform="translate(135.000000, 227.000000)" fill="#BFBFBF" fill-rule="nonzero">
            <g id="1-copy-5" transform="translate(1.000000, 505.000000)">
                <g id="animation-14" transform="translate(0.000000, 16.000000)">
                    <path d="M19,10 C16.243,10 14,7.757 14,5 C14,2.243 16.243,0 19,0 C21.757,0 24,2.243 24,5 C24,7.757 21.757,10 19,10 Z" id="Shape"></path>
                    <path d="M12.187,6.055 C10.45,6.657 8.705,8.029 7.513,10.078 C6.652,5.306 4.645,1.968 1.504,0.136 L0.496,1.864 C4.148,3.994 6,8.75 6,16 L8,16 C8,11.593 10.432,8.779 12.841,7.944 L12.187,6.055 Z" id="Shape"></path>
                </g>
            </g>
        </g>
    </g>
</svg>