<?xml version="1.0" encoding="UTF-8"?>
<svg width="24px" height="22px" viewBox="0 0 24 22" version="1.1" xmlns="http://www.w3.org/2000/svg" xmlns:xlink="http://www.w3.org/1999/xlink">
    <!-- Generator: Sketch 48.2 (47327) - http://www.bohemiancoding.com/sketch -->
    <title>webpage</title>
    <desc>Created with Sketch.</desc>
    <defs></defs>
    <g id="ToolKit-Components" stroke="none" stroke-width="1" fill="none" fill-rule="evenodd" transform="translate(-1007.000000, -396.000000)">
        <g id="3" transform="translate(1004.000000, 227.000000)" fill="#BFBFBF" fill-rule="nonzero">
            <g id="1-copy" transform="translate(3.000000, 157.000000)">
                <g id="webpage" transform="translate(0.000000, 12.000000)">
                    <path d="M24,3 L24,1 C24,0.448 23.553,0 23,0 L6,0 L6,3 L24,3 Z" id="Shape"></path>
                    <path d="M4,3 L4,0 L1,0 C0.447,0 0,0.448 0,1 L0,3 L4,3 Z" id="Shape"></path>
                    <path d="M0,5 L0,21 C0,21.552 0.447,22 1,22 L23,22 C23.553,22 24,21.552 24,21 L24,5 L0,5 Z M7,19 L3,19 L3,14 L7,14 L7,19 Z M21,19 L10,19 L10,14 L21,14 L21,19 Z M21,11 L3,11 L3,8 L21,8 L21,11 Z" id="Shape"></path>
                </g>
            </g>
        </g>
    </g>
</svg>